<svg width="24" height="24" viewBox="0 0 24 24" fill="currentColor" xmlns="http://www.w3.org/2000/svg">
<path d="M12 16C14.2091 16 16 14.2091 16 12C16 9.79086 14.2091 8 12 8C9.79086 8 8 9.79086 8 12C8 14.2091 9.79086 16 12 16ZM19.14 12.94C19.18 12.63 19.19 12.31 19.19 12C19.19 11.69 19.18 11.37 19.14 11.06L21.12 9.07C21.29 8.9 21.32 8.62 21.23 8.37L19.77 4.89C19.68 4.64 19.45 4.5 19.19 4.5H16.63C16.27 4.14 15.89 3.82 15.5 3.54L15.5 0.81C15.5 0.56 15.31 0.37 15.06 0.28H8.93C8.68 0.37 8.5 0.56 8.5 0.81V3.54C8.11 3.82 7.73 4.14 7.37 4.5H4.81C4.55 4.5 4.32 4.64 4.23 4.89L2.77 8.37C2.68 8.62 2.71 8.9 2.88 9.07L4.86 11.06C4.82 11.37 4.81 11.69 4.81 12C4.81 12.31 4.82 12.63 4.86 12.94L2.88 14.93C2.71 15.1 2.68 15.38 2.77 15.63L4.23 19.11C4.32 19.36 4.55 19.5 4.81 19.5H7.37C7.73 19.86 8.11 20.18 8.5 20.46V23.19C8.5 23.44 8.68 23.63 8.93 23.72H15.06C15.31 23.63 15.5 23.44 15.5 23.19V20.46C15.89 20.18 16.27 19.86 16.63 19.5H19.19C19.45 19.5 19.68 19.36 19.77 19.11L21.23 15.63C21.32 15.38 21.29 15.1 21.12 14.93L19.14 12.94Z" fill="currentColor"/>
</svg>