<svg width="24" height="24" viewBox="0 0 24 24" fill="currentColor" xmlns="http://www.w3.org/2000/svg">
<path d="M12 7C9.24 7 7 9.24 7 12C7 14.76 9.24 17 12 17C14.76 17 17 14.76 17 12C17 9.24 14.76 7 12 7ZM11 1V4H13V1H11ZM11 20V23H13V20H11ZM23 11H20V13H23V11ZM4 11H1V13H4V11ZM19.07 4.93L17.66 6.34L19.07 7.75L20.48 6.34L19.07 4.93ZM4.93 4.93L3.52 6.34L4.93 7.75L6.34 6.34L4.93 4.93ZM17.66 17.66L19.07 19.07L20.48 17.66L19.07 16.25L17.66 17.66ZM4.93 19.07L6.34 17.66L4.93 16.25L3.52 17.66L4.93 19.07Z" fill="currentColor"/>
</svg>